<mxfile host="app.diagrams.net" modified="2022-10-19T06:54:02.195Z" agent="5.0 (Windows NT 10.0; Win64; x64) AppleWebKit/537.36 (KHTML, like Gecko) Chrome/106.0.0.0 Safari/537.36" etag="Vl_ImpaZ8wEW4k8920kk" version="20.3.7" type="github">
  <diagram id="tHbiUGASqZR1zomkJgm9" name="第 1 页">
    <mxGraphModel dx="1422" dy="762" grid="1" gridSize="10" guides="1" tooltips="1" connect="1" arrows="1" fold="1" page="1" pageScale="1" pageWidth="3827" pageHeight="3169" math="0" shadow="0">
      <root>
        <mxCell id="0" />
        <mxCell id="1" parent="0" />
        <mxCell id="CqzLWIbNmXoIqGg2p2Hz-8" style="edgeStyle=orthogonalEdgeStyle;rounded=0;orthogonalLoop=1;jettySize=auto;html=1;entryX=0;entryY=0.5;entryDx=0;entryDy=0;fontSize=8;" parent="1" source="CqzLWIbNmXoIqGg2p2Hz-1" target="CqzLWIbNmXoIqGg2p2Hz-4" edge="1">
          <mxGeometry relative="1" as="geometry" />
        </mxCell>
        <mxCell id="CqzLWIbNmXoIqGg2p2Hz-1" value="集群1" style="rounded=0;whiteSpace=wrap;html=1;" parent="1" vertex="1">
          <mxGeometry x="400" y="150" width="120" height="60" as="geometry" />
        </mxCell>
        <mxCell id="CqzLWIbNmXoIqGg2p2Hz-6" style="edgeStyle=orthogonalEdgeStyle;rounded=0;orthogonalLoop=1;jettySize=auto;html=1;entryX=0;entryY=0.5;entryDx=0;entryDy=0;fontSize=8;" parent="1" source="CqzLWIbNmXoIqGg2p2Hz-2" target="CqzLWIbNmXoIqGg2p2Hz-1" edge="1">
          <mxGeometry relative="1" as="geometry" />
        </mxCell>
        <mxCell id="CqzLWIbNmXoIqGg2p2Hz-7" style="edgeStyle=orthogonalEdgeStyle;rounded=0;orthogonalLoop=1;jettySize=auto;html=1;entryX=0;entryY=0.5;entryDx=0;entryDy=0;fontSize=8;" parent="1" source="CqzLWIbNmXoIqGg2p2Hz-2" target="CqzLWIbNmXoIqGg2p2Hz-3" edge="1">
          <mxGeometry relative="1" as="geometry" />
        </mxCell>
        <mxCell id="CqzLWIbNmXoIqGg2p2Hz-2" value="&lt;h1&gt;&lt;font style=&quot;font-size: 8px;&quot;&gt;添加操作&lt;/font&gt;&lt;/h1&gt;" style="text;html=1;strokeColor=none;fillColor=none;align=center;verticalAlign=middle;whiteSpace=wrap;rounded=0;" parent="1" vertex="1">
          <mxGeometry x="180" y="235" width="110" height="50" as="geometry" />
        </mxCell>
        <mxCell id="CqzLWIbNmXoIqGg2p2Hz-9" style="edgeStyle=orthogonalEdgeStyle;rounded=0;orthogonalLoop=1;jettySize=auto;html=1;entryX=0;entryY=0.5;entryDx=0;entryDy=0;fontSize=8;" parent="1" source="CqzLWIbNmXoIqGg2p2Hz-3" target="CqzLWIbNmXoIqGg2p2Hz-4" edge="1">
          <mxGeometry relative="1" as="geometry" />
        </mxCell>
        <mxCell id="CqzLWIbNmXoIqGg2p2Hz-3" value="集群2" style="rounded=0;whiteSpace=wrap;html=1;" parent="1" vertex="1">
          <mxGeometry x="400" y="300" width="120" height="60" as="geometry" />
        </mxCell>
        <mxCell id="CqzLWIbNmXoIqGg2p2Hz-4" value="数据sn.value()" style="rounded=0;whiteSpace=wrap;html=1;fontSize=8;" parent="1" vertex="1">
          <mxGeometry x="740" y="230" width="120" height="60" as="geometry" />
        </mxCell>
        <mxCell id="CqzLWIbNmXoIqGg2p2Hz-5" value="数据库" style="text;html=1;strokeColor=none;fillColor=none;align=center;verticalAlign=middle;whiteSpace=wrap;rounded=0;fontSize=8;" parent="1" vertex="1">
          <mxGeometry x="770" y="200" width="60" height="30" as="geometry" />
        </mxCell>
        <mxCell id="CqzLWIbNmXoIqGg2p2Hz-10" style="edgeStyle=orthogonalEdgeStyle;rounded=0;orthogonalLoop=1;jettySize=auto;html=1;entryX=0;entryY=0.5;entryDx=0;entryDy=0;fontSize=8;" parent="1" source="CqzLWIbNmXoIqGg2p2Hz-11" target="CqzLWIbNmXoIqGg2p2Hz-17" edge="1">
          <mxGeometry relative="1" as="geometry" />
        </mxCell>
        <mxCell id="CqzLWIbNmXoIqGg2p2Hz-11" value="集群1" style="rounded=0;whiteSpace=wrap;html=1;" parent="1" vertex="1">
          <mxGeometry x="400" y="590" width="120" height="60" as="geometry" />
        </mxCell>
        <mxCell id="CqzLWIbNmXoIqGg2p2Hz-12" style="edgeStyle=orthogonalEdgeStyle;rounded=0;orthogonalLoop=1;jettySize=auto;html=1;entryX=0;entryY=0.5;entryDx=0;entryDy=0;fontSize=8;" parent="1" source="CqzLWIbNmXoIqGg2p2Hz-14" target="CqzLWIbNmXoIqGg2p2Hz-11" edge="1">
          <mxGeometry relative="1" as="geometry" />
        </mxCell>
        <mxCell id="CqzLWIbNmXoIqGg2p2Hz-13" style="edgeStyle=orthogonalEdgeStyle;rounded=0;orthogonalLoop=1;jettySize=auto;html=1;entryX=0;entryY=0.5;entryDx=0;entryDy=0;fontSize=8;" parent="1" source="CqzLWIbNmXoIqGg2p2Hz-14" target="CqzLWIbNmXoIqGg2p2Hz-16" edge="1">
          <mxGeometry relative="1" as="geometry" />
        </mxCell>
        <mxCell id="CqzLWIbNmXoIqGg2p2Hz-14" value="&lt;h1&gt;&lt;font style=&quot;font-size: 8px;&quot;&gt;添加操作&lt;/font&gt;&lt;/h1&gt;" style="text;html=1;strokeColor=none;fillColor=none;align=center;verticalAlign=middle;whiteSpace=wrap;rounded=0;" parent="1" vertex="1">
          <mxGeometry x="180" y="675" width="110" height="50" as="geometry" />
        </mxCell>
        <mxCell id="CqzLWIbNmXoIqGg2p2Hz-15" style="edgeStyle=orthogonalEdgeStyle;rounded=0;orthogonalLoop=1;jettySize=auto;html=1;entryX=0;entryY=0.5;entryDx=0;entryDy=0;fontSize=8;" parent="1" source="CqzLWIbNmXoIqGg2p2Hz-16" target="CqzLWIbNmXoIqGg2p2Hz-17" edge="1">
          <mxGeometry relative="1" as="geometry" />
        </mxCell>
        <mxCell id="CqzLWIbNmXoIqGg2p2Hz-16" value="集群2" style="rounded=0;whiteSpace=wrap;html=1;" parent="1" vertex="1">
          <mxGeometry x="400" y="740" width="120" height="60" as="geometry" />
        </mxCell>
        <mxCell id="CqzLWIbNmXoIqGg2p2Hz-17" value="数据sn.value()" style="rounded=0;whiteSpace=wrap;html=1;fontSize=8;" parent="1" vertex="1">
          <mxGeometry x="740" y="670" width="120" height="60" as="geometry" />
        </mxCell>
        <mxCell id="CqzLWIbNmXoIqGg2p2Hz-18" value="数据库" style="text;html=1;strokeColor=none;fillColor=none;align=center;verticalAlign=middle;whiteSpace=wrap;rounded=0;fontSize=8;" parent="1" vertex="1">
          <mxGeometry x="770" y="640" width="60" height="30" as="geometry" />
        </mxCell>
        <mxCell id="CqzLWIbNmXoIqGg2p2Hz-19" value="1.从redis中获取一个key&lt;br&gt;2.与预定值进行对比&lt;br&gt;&lt;span style=&quot;white-space: pre;&quot;&gt; &lt;/span&gt;2.1 == 从数据库中获取sn.value()，进行操作&lt;br&gt;&lt;span style=&quot;white-space: pre;&quot;&gt; &lt;/span&gt;2.2 !=&amp;nbsp; 陷入循环，直到从redis中获取一个key" style="text;html=1;strokeColor=none;fillColor=none;align=left;verticalAlign=middle;whiteSpace=wrap;rounded=0;fontSize=8;" parent="1" vertex="1">
          <mxGeometry x="520" y="890" width="350" height="100" as="geometry" />
        </mxCell>
        <mxCell id="CqzLWIbNmXoIqGg2p2Hz-20" value="保证：&lt;br&gt;&lt;span style=&quot;white-space: pre;&quot;&gt; &lt;/span&gt;有序性：后获取的value比先获取的大，先更新再获取&lt;br&gt;&lt;span style=&quot;white-space: pre;&quot;&gt; &lt;/span&gt;原子性：获取，与更新应该保证原子性" style="text;html=1;strokeColor=none;fillColor=none;align=left;verticalAlign=middle;whiteSpace=wrap;rounded=0;fontSize=8;" parent="1" vertex="1">
          <mxGeometry x="291" y="1190" width="370" height="100" as="geometry" />
        </mxCell>
      </root>
    </mxGraphModel>
  </diagram>
</mxfile>
